<svg xmlns="http://www.w3.org/2000/svg" width="47.566" height="47.514" viewBox="0 0 47.566 47.514">
  <g id="handcuffs" transform="translate(0 -0.499)">
    <path id="Path_1289" data-name="Path 1289" d="M368.7,334.851a.7.7,0,0,1,.033-1.393,11,11,0,0,0,10.19-15.742.7.7,0,0,1,1.257-.6A12.392,12.392,0,0,1,371,334.689,13.375,13.375,0,0,1,368.7,334.851Zm0,0" transform="translate(-333.835 -286.843)" fill="#fff"/>
    <path id="Path_1290" data-name="Path 1290" d="M44.825,20.729,40.683,19.4l.338-1.175a2.008,2.008,0,0,0,2.141-1.352l.712-2.184a1.987,1.987,0,0,0-1.123-2.447l.085-2.415a1.875,1.875,0,0,0,.076-2.879L41.29,5.322a1.89,1.89,0,0,0-2.853.043l-2.48.087a2.006,2.006,0,0,0-2.423-1.083l-2.186.705a1.989,1.989,0,0,0-1.365,2.092l-.952.253-.987-3.314a1.715,1.715,0,0,0-1.984-1.2l-4.467.881A12.953,12.953,0,0,0,2.113,6.37,12.885,12.885,0,0,0,.092,14.941a2.443,2.443,0,0,0,2.99,2.116,2.4,2.4,0,0,0,1.832-2.645,8.109,8.109,0,0,1,15.823-3.276h0l1.026,3.428a3.191,3.191,0,0,0,4.26,2.041L29.7,15.112a1.715,1.715,0,0,0,1-2.088L29.429,8.756,30.39,8.5a1.931,1.931,0,0,0,2.373.96l2.186-.705a1.988,1.988,0,0,0,1.375-1.921l1.118-.039a2.092,2.092,0,0,0,.585,1.782L39.65,10.2a1.984,1.984,0,0,0,1.76.551l-.039,1.115a1.966,1.966,0,0,0-1.877,1.392l-.712,2.184A1.988,1.988,0,0,0,39.7,17.79l-.341,1.184-3.391-1.088a1.715,1.715,0,0,0-2.108.961l-1.794,4.184a12.957,12.957,0,0,0-2.934,24.044A2.4,2.4,0,0,0,32.563,45.8a2.46,2.46,0,0,0-1.15-3.005,8.109,8.109,0,0,1,6.23-14.91h0l3.408,1.089a3.191,3.191,0,0,0,4.09-2.364l.84-3.876A1.716,1.716,0,0,0,44.825,20.729ZM29.172,13.821l-3.675,1.5a1.8,1.8,0,0,1-2.4-1.15l-1.025-3.428A9.5,9.5,0,0,0,3.529,14.579a1.032,1.032,0,1,1-2.054.2A11.567,11.567,0,0,1,9.664,2.368a11.46,11.46,0,0,1,3.275-.476,11.639,11.639,0,0,1,7.967,3.156.7.7,0,0,0,.613.176l4.812-.95a.326.326,0,0,1,.379.229l2.656,8.918A.328.328,0,0,1,29.172,13.821Zm5.349-6.392-2.186.705a.593.593,0,0,1-.745-.381l-.2-.608a.592.592,0,0,1,.381-.744L33.962,5.7a.526.526,0,0,1,.744.381l.2.607A.5.5,0,0,1,34.521,7.428Zm6.115,1.79L39.014,7.592a.592.592,0,0,1,0-.836l.452-.451a.592.592,0,0,1,.836,0l1.622,1.626a.526.526,0,0,1,0,.836l-.452.451A.5.5,0,0,1,40.636,9.219Zm-.53,6.658.712-2.184a.593.593,0,0,1,.746-.379l.607.2a.592.592,0,0,1,.379.746l-.712,2.184a.526.526,0,0,1-.745.379l-.607-.2A.5.5,0,0,1,40.106,15.876ZM44.62,22.44l-.84,3.878a1.8,1.8,0,0,1-2.3,1.331l-3.407-1.088a9.5,9.5,0,0,0-7.3,17.473,1.026,1.026,0,0,1,.488,1.278,1.077,1.077,0,0,1-1.483.53,11.563,11.563,0,0,1,2.937-21.531.7.7,0,0,0,.491-.406L35.137,19.4a.328.328,0,0,1,.4-.183l8.86,2.842A.327.327,0,0,1,44.62,22.44Zm0,0" fill="#fff"/>
    <path id="Path_1291" data-name="Path 1291" d="M47.347,196.141a.7.7,0,0,0-.953.249,11.011,11.011,0,0,1-18.724.438.7.7,0,1,0-1.168.759,12.4,12.4,0,0,0,21.094-.494A.7.7,0,0,0,47.347,196.141Zm0,0" transform="translate(-23.938 -177.38)" fill="#fff"/>
    <path id="Path_1292" data-name="Path 1292" d="M58.806,189.692a10.092,10.092,0,0,0,8.683-4.95.7.7,0,0,0-1.2-.708,8.679,8.679,0,0,1-14.474.7.7.7,0,0,0-1.125.822,10.1,10.1,0,0,0,8.116,4.138Zm0,0" transform="translate(-45.859 -166.174)" fill="#fff"/>
    <path id="Path_1293" data-name="Path 1293" d="M382.761,328.271a.7.7,0,0,0-.335.926,8.671,8.671,0,0,1-6.452,12.23,8.788,8.788,0,0,1-1.132.111.7.7,0,0,0,.022,1.393h.023a10.066,10.066,0,0,0,8.8-14.325A.7.7,0,0,0,382.761,328.271Zm0,0" transform="translate(-339.407 -297.262)" fill="#fff"/>
    <path id="Path_1294" data-name="Path 1294" d="M400.734,224.372a1.782,1.782,0,0,0-2.343,1.208l-.2.62a1.864,1.864,0,1,0,3.551,1.134l.2-.62A1.766,1.766,0,0,0,400.734,224.372Zm-.119,1.919-.2.62a.515.515,0,0,1-.592.305.469.469,0,0,1-.305-.592l.2-.62a.469.469,0,0,1,.592-.305A.45.45,0,0,1,400.615,226.291Zm0,0" transform="translate(-361.12 -202.985)" fill="#fff"/>
    <path id="Path_1295" data-name="Path 1295" d="M248.792,78.768l-.623.188a1.864,1.864,0,0,0,1.078,3.569l.623-.188a1.864,1.864,0,0,0-1.078-3.569ZM249.467,81l-.623.188a.515.515,0,0,1-.586-.315.469.469,0,0,1,.315-.587l.623-.188a.469.469,0,0,1,.587.314A.45.45,0,0,1,249.467,81Zm0,0" transform="translate(-223.911 -70.924)" fill="#fff"/>
  </g>
</svg>
