<svg xmlns="http://www.w3.org/2000/svg" width="37.568" height="49.738" viewBox="0 0 37.568 49.738">
  <g id="notebook-paper-todo" transform="translate(-2.506 0.49)">
    <path id="Path_1285" data-name="Path 1285" d="M33.754,4.053H28.4V1.026a1.016,1.016,0,1,0-2.032,0V4.053H22.306V1.026a1.016,1.016,0,1,0-2.032,0V4.053H16.211V1.026a1.016,1.016,0,1,0-2.032,0V4.053H8.826a5.826,5.826,0,0,0-5.82,5.82V42.927a5.826,5.826,0,0,0,5.82,5.82H33.754a5.826,5.826,0,0,0,5.82-5.82V9.873A5.826,5.826,0,0,0,33.754,4.053Zm3.789,38.874a3.794,3.794,0,0,1-3.789,3.789H8.826a3.794,3.794,0,0,1-3.789-3.789V9.873A3.794,3.794,0,0,1,8.826,6.084H14.18V7.106a1.016,1.016,0,0,0,2.032,0V6.084h4.063V7.106a1.016,1.016,0,0,0,2.032,0V6.084h4.063V7.106a1.016,1.016,0,0,0,2.032,0V6.084h5.353a3.793,3.793,0,0,1,3.789,3.789V42.927Z" transform="translate(0 0)" fill="#fff" stroke="#fff" stroke-width="1"/>
    <path id="Path_1286" data-name="Path 1286" d="M26.163,8H8.027a1.016,1.016,0,1,0,0,2.032H26.163a1.016,1.016,0,1,0,0-2.032Z" transform="translate(4.131 8.242)" fill="#fff" stroke="#fff" stroke-width="1"/>
    <path id="Path_1287" data-name="Path 1287" d="M26.163,12H8.027a1.016,1.016,0,0,0,0,2.032H26.163a1.016,1.016,0,0,0,0-2.032Z" transform="translate(4.131 12.369)" fill="#fff" stroke="#fff" stroke-width="1"/>
    <path id="Path_1288" data-name="Path 1288" d="M26.163,16H8.027a1.016,1.016,0,1,0,0,2.032H26.163a1.016,1.016,0,1,0,0-2.032Z" transform="translate(4.131 16.495)" fill="#fff" stroke="#fff" stroke-width="1"/>
  </g>
</svg>
