<svg xmlns="http://www.w3.org/2000/svg" width="41.225" height="51.851" viewBox="0 0 41.225 51.851">
  <g id="protect" transform="translate(-0.5 0.001)">
    <path id="Path_1280" data-name="Path 1280" d="M41.725,9.113a1,1,0,0,0-.82-1l-2.1-.361A38.82,38.82,0,0,1,21.7.2a.957.957,0,0,0-1.178,0A38.82,38.82,0,0,1,3.417,7.754l-2.1.361a1,1,0,0,0-.82,1v7.7C.5,27.3,3.414,37.267,10.6,44.742A28.733,28.733,0,0,0,20.8,51.8a.942.942,0,0,0,.313.053.956.956,0,0,0,.313-.053,28.73,28.73,0,0,0,10.2-7.055c7.188-7.476,10.1-17.445,10.1-27.932Zm-1.963,7.7c0,10.967-3.184,19.861-9.462,26.434a28.209,28.209,0,0,1-9.187,6.511,28.218,28.218,0,0,1-9.187-6.511C5.647,36.671,2.463,27.777,2.463,16.81V9.971l1.276-.219A40.746,40.746,0,0,0,21.112,2.269,40.744,40.744,0,0,0,38.485,9.752l1.276.219Zm0,0" fill="#fff"/>
    <path id="Path_1281" data-name="Path 1281" d="M41.688,207.657a.861.861,0,0,0-.181-1.644.839.839,0,0,0-.146-.013.861.861,0,1,0,.327,1.657Zm0,0" transform="translate(-36.557 -185.012)" fill="#fff"/>
    <path id="Path_1282" data-name="Path 1282" d="M74.023,55.607a44.137,44.137,0,0,1-15.8-6.638.981.981,0,0,0-1.1,0,43.627,43.627,0,0,1-15.8,6.639,1.037,1.037,0,0,0-.815,1.026s0,5.15.01,5.491a1.027,1.027,0,0,0,1.01,1.024h.021a1.03,1.03,0,0,0,.989-1.068c-.007-.326-.01-4.594-.01-4.594a45.554,45.554,0,0,0,15.15-6.4,46.2,46.2,0,0,0,15.149,6.4v3.569c0,15.676-7.451,25.7-15.155,29.5-6.321-3.134-12.192-10.511-14.26-20.42a1.011,1.011,0,0,0-1.2-.8,1.046,1.046,0,0,0-.774,1.243C43.714,81.525,50.4,89.534,57.258,92.67a.98.98,0,0,0,.82,0c8.736-4.037,16.762-15.05,16.762-31.612V56.634A1.037,1.037,0,0,0,74.023,55.607Zm0,0" transform="translate(-36.557 -44.6)" fill="#fff"/>
    <path id="Path_1283" data-name="Path 1283" d="M183.082,246a2.582,2.582,0,1,0,2.582,2.582A2.585,2.585,0,0,0,183.082,246Zm0,3.443a.861.861,0,1,1,.861-.861A.862.862,0,0,1,183.082,249.443Zm0,0" transform="translate(-161.97 -220.592)" fill="#fff"/>
    <path id="Path_1284" data-name="Path 1284" d="M146.525,146a4.308,4.308,0,0,0-4.3,4.3v.861h-.861a.861.861,0,0,0-.861.861v10.328a.861.861,0,0,0,.861.861h10.328a.861.861,0,0,0,.861-.861V152.025a.861.861,0,0,0-.861-.861h-.861V150.3A4.308,4.308,0,0,0,146.525,146Zm-2.582,4.3a2.582,2.582,0,1,1,5.164,0v.861h-5.164Zm6.885,11.189h-8.607v-8.607h8.607Zm0,0" transform="translate(-125.412 -129.792)" fill="#fff"/>
  </g>
</svg>
